<svg preserveAspectRatio="none" width="100%" height="100%" overflow="visible" style="display: block;" viewBox="0 0 24 24" fill="none" xmlns="http://www.w3.org/2000/svg">
<g id="Repeat">
<path id="Vector" d="M2.25 12C2.25199 10.2104 2.96378 8.49466 4.22922 7.22922C5.49466 5.96378 7.2104 5.25199 9 5.25H18V3.75C17.9999 3.60158 18.0438 3.45646 18.1262 3.33301C18.2086 3.20957 18.3258 3.11335 18.4629 3.05653C18.6 2.99972 18.7509 2.98487 18.8965 3.01385C19.042 3.04284 19.1757 3.11437 19.2806 3.21938L21.5306 5.46938C21.6004 5.53903 21.6557 5.62175 21.6934 5.7128C21.7312 5.80384 21.7506 5.90144 21.7506 6C21.7506 6.09856 21.7312 6.19616 21.6934 6.28721C21.6557 6.37825 21.6004 6.46097 21.5306 6.53063L19.2806 8.78063C19.1757 8.88563 19.042 8.95716 18.8965 8.98615C18.7509 9.01514 18.6 9.00028 18.4629 8.94347C18.3258 8.88665 18.2086 8.79043 18.1262 8.66699C18.0438 8.54354 17.9999 8.39842 18 8.25V6.75H9C7.60807 6.75149 6.27358 7.30509 5.28933 8.28933C4.30509 9.27358 3.75149 10.6081 3.75 12C3.75 12.1989 3.67098 12.3897 3.53033 12.5303C3.38968 12.671 3.19891 12.75 3 12.75C2.80109 12.75 2.61032 12.671 2.46967 12.5303C2.32902 12.3897 2.25 12.1989 2.25 12ZM21 11.25C20.8011 11.25 20.6103 11.329 20.4697 11.4697C20.329 11.6103 20.25 11.8011 20.25 12C20.2485 13.3919 19.6949 14.7264 18.7107 15.7107C17.7264 16.6949 16.3919 17.2485 15 17.25H6V15.75C6.00012 15.6016 5.95619 15.4565 5.87379 15.333C5.79139 15.2096 5.67421 15.1133 5.53709 15.0565C5.39998 14.9997 5.24908 14.9849 5.10352 15.0139C4.95796 15.0428 4.82427 15.1144 4.71938 15.2194L2.46938 17.4694C2.39964 17.539 2.34432 17.6217 2.30658 17.7128C2.26884 17.8038 2.24941 17.9014 2.24941 18C2.24941 18.0986 2.26884 18.1962 2.30658 18.2872C2.34432 18.3783 2.39964 18.461 2.46938 18.5306L4.71938 20.7806C4.82427 20.8856 4.95796 20.9572 5.10352 20.9861C5.24908 21.0151 5.39998 21.0003 5.53709 20.9435C5.67421 20.8867 5.79139 20.7904 5.87379 20.667C5.95619 20.5435 6.00012 20.3984 6 20.25V18.75H15C16.7896 18.748 18.5053 18.0362 19.7708 16.7708C21.0362 15.5053 21.748 13.7896 21.75 12C21.75 11.8011 21.671 11.6103 21.5303 11.4697C21.3897 11.329 21.1989 11.25 21 11.25Z" fill="var(--fill-0, black)"/>
</g>
</svg>
