<svg preserveAspectRatio="none" width="100%" height="100%" overflow="visible" style="display: block;" viewBox="0 0 24 24" fill="none" xmlns="http://www.w3.org/2000/svg">
<g id="Shuffle">
<path id="Vector" d="M22.2806 16.7194C22.3504 16.789 22.4057 16.8717 22.4434 16.9628C22.4812 17.0538 22.5006 17.1514 22.5006 17.25C22.5006 17.3486 22.4812 17.4462 22.4434 17.5372C22.4057 17.6283 22.3504 17.711 22.2806 17.7806L20.0306 20.0306C19.9257 20.1356 19.792 20.2072 19.6465 20.2361C19.5009 20.2651 19.35 20.2503 19.2129 20.1935C19.0758 20.1367 18.9586 20.0404 18.8762 19.917C18.7938 19.7935 18.7499 19.6484 18.75 19.5V18C17.6908 17.9851 16.6499 17.7217 15.7111 17.2309C14.7724 16.7401 13.962 16.0357 13.3453 15.1744L9.43406 9.69938C8.94789 9.01975 8.30677 8.46575 7.56382 8.08328C6.82088 7.7008 5.99749 7.50085 5.16188 7.5H3C2.80109 7.5 2.61032 7.42098 2.46967 7.28033C2.32902 7.13968 2.25 6.94891 2.25 6.75C2.25 6.55109 2.32902 6.36032 2.46967 6.21967C2.61032 6.07902 2.80109 6 3 6H5.16188C6.23615 6.00089 7.29474 6.25775 8.24996 6.7493C9.20518 7.24085 10.0295 7.95294 10.6547 8.82656L14.5659 14.3016C15.0434 14.9692 15.6704 15.5157 16.397 15.8975C17.1235 16.2792 17.9294 16.4856 18.75 16.5V15C18.7499 14.8516 18.7938 14.7065 18.8762 14.583C18.9586 14.4596 19.0758 14.3633 19.2129 14.3065C19.35 14.2497 19.5009 14.2349 19.6465 14.2639C19.792 14.2928 19.9257 14.3644 20.0306 14.4694L22.2806 16.7194ZM13.4062 10.0313C13.4864 10.0885 13.577 10.1294 13.673 10.1516C13.7689 10.1738 13.8683 10.1769 13.9655 10.1608C14.0626 10.1446 14.1557 10.1094 14.2392 10.0573C14.3228 10.0051 14.3953 9.93702 14.4525 9.85688L14.565 9.70031C15.0423 9.03224 15.6695 8.48525 16.3962 8.10316C17.1229 7.72107 17.9291 7.5145 18.75 7.5V9C18.7499 9.14842 18.7938 9.29354 18.8762 9.41699C18.9586 9.54043 19.0758 9.63665 19.2129 9.69347C19.35 9.75028 19.5009 9.76514 19.6465 9.73615C19.792 9.70716 19.9257 9.63563 20.0306 9.53063L22.2806 7.28063C22.3504 7.21097 22.4057 7.12825 22.4434 7.03721C22.4812 6.94616 22.5006 6.84856 22.5006 6.75C22.5006 6.65144 22.4812 6.55384 22.4434 6.46279C22.4057 6.37175 22.3504 6.28903 22.2806 6.21937L20.0306 3.96937C19.9257 3.86437 19.792 3.79284 19.6465 3.76385C19.5009 3.73487 19.35 3.74972 19.2129 3.80653C19.0758 3.86335 18.9586 3.95957 18.8762 4.08301C18.7938 4.20646 18.7499 4.35158 18.75 4.5V6C17.6908 6.01488 16.6499 6.27832 15.7111 6.76912C14.7724 7.25991 13.962 7.96433 13.3453 8.82563L13.2328 8.98219C13.1751 9.06237 13.1338 9.15317 13.1112 9.24937C13.0887 9.34558 13.0854 9.44528 13.1015 9.54277C13.1176 9.64025 13.1528 9.73359 13.2051 9.81742C13.2574 9.90125 13.3258 9.97392 13.4062 10.0313ZM10.5938 13.9688C10.5136 13.9115 10.423 13.8706 10.327 13.8484C10.2311 13.8262 10.1317 13.8231 10.0345 13.8392C9.93736 13.8554 9.84434 13.8906 9.76078 13.9427C9.67722 13.9949 9.60475 14.063 9.5475 14.1431L9.435 14.2997C8.94883 14.9796 8.30761 15.5339 7.56448 15.9165C6.82136 16.2992 5.99773 16.4992 5.16188 16.5H3C2.80109 16.5 2.61032 16.579 2.46967 16.7197C2.32902 16.8603 2.25 17.0511 2.25 17.25C2.25 17.4489 2.32902 17.6397 2.46967 17.7803C2.61032 17.921 2.80109 18 3 18H5.16188C6.23615 17.9991 7.29474 17.7422 8.24996 17.2507C9.20518 16.7592 10.0295 16.0471 10.6547 15.1734L10.7672 15.0169C10.8248 14.9367 10.866 14.846 10.8884 14.7499C10.9109 14.6538 10.9142 14.5542 10.898 14.4568C10.8819 14.3594 10.8468 14.2662 10.7945 14.1825C10.7423 14.0987 10.6741 14.0261 10.5938 13.9688Z" fill="var(--fill-0, black)"/>
</g>
</svg>
